<svg id="Layer_1" data-name="Layer 1" xmlns="http://www.w3.org/2000/svg" viewBox="0 0 1200 1200">
  <defs>
    <style>
      .cls-1 {
        fill: #990037;
      }
    </style>
  </defs>
  <title>Westberg_SVG</title>
  <g>
    <g>
      <path class="cls-1" d="M296,602.73a1.57,1.57,0,0,1-.24-.32l-9.31-16.23Z"/>
      <path class="cls-1" d="M270.09,570.92l22.67,39.28a1.47,1.47,0,0,1,0,1.45l-14.45,25.18a1.46,1.46,0,0,1-2.53,0l-37-64.45a1.46,1.46,0,0,1,1.27-2.18h28.75A1.45,1.45,0,0,1,270.09,570.92Z"/>
      <path class="cls-1" d="M296,602.73a1.57,1.57,0,0,1-.24-.32l-9.31-16.23Z"/>
      <path class="cls-1" d="M289.72,536.51a1.47,1.47,0,0,0-1.27-.73H260.06A1.45,1.45,0,0,0,258.8,538l56.65,98.87a1.46,1.46,0,0,0,2.53,0l14.36-25a1.45,1.45,0,0,0,0-1.45Zm6.06,65.9-9.31-16.23L296,602.73A1.57,1.57,0,0,1,295.78,602.41Z"/>
      <path class="cls-1" d="M296,602.73a1.57,1.57,0,0,1-.24-.32l-9.31-16.23Z"/>
      <path class="cls-1" d="M335.29,538l-.32.56-17,29.53a1.45,1.45,0,0,1-2.52,0L298.13,538a1.45,1.45,0,0,1,1.26-2.18H334A1.46,1.46,0,0,1,335.29,538Z"/>
      <path class="cls-1" d="M296,602.73a1.57,1.57,0,0,1-.24-.32l-9.31-16.23Z"/>
      <path class="cls-1" d="M355,572.38l-17.17,29.91a1.45,1.45,0,0,1-2.52,0L318,572.43a1.46,1.46,0,0,1,1.26-2.19l34.41,0A1.46,1.46,0,0,1,355,572.38Z"/>
    </g>
    <g>
      <path class="cls-1" d="M436.32,625.17l-12.4-27.88-12.49,27.88-32.58-71h16.07l16.94,40.2,5.22-12.32-12.49-27.88H419l5,11.72,4.87-11.72h14.37l-12.49,27.88,5.22,12.32,16.94-40.2H468.9Z"/>
      <path class="cls-1" d="M488,554.18h44.48v14.54H502.51v12.83H529v14.54H502.51v12.83h29.94v14.54H488Z"/>
      <path class="cls-1" d="M551.43,606.52l13.43-6.07c.6,5.73,4.53,9.41,9.67,9.41,4.7,0,8-3.08,8-7.61,0-11.29-27.2-7.87-27.2-29.77,0-11.2,8.21-19.15,19.67-19.15,9.07,0,16.59,5.21,19.42,13.25l-12.66,5.65c-1-3-3.42-5.05-6.5-5.05-3.34,0-5.48,2.05-5.48,5,0,9.66,27.29,7.27,27.29,30.28,0,12.74-9.32,21.89-22.15,21.89C563.58,624.31,553.83,617,551.43,606.52Z"/>
      <path class="cls-1" d="M629.35,568.72H612.41V554.18h48.32v14.54H643.89v54.74H629.35Z"/>
      <path class="cls-1" d="M681.43,554.18h24.2a21,21,0,0,1,21,21,17.35,17.35,0,0,1-3.68,11,19.59,19.59,0,0,1,8.38,16.33,21,21,0,0,1-20.95,21H681.43Zm24.2,27.71a6.37,6.37,0,0,0,6.42-6.5,6.52,6.52,0,0,0-6.42-6.67H696v13.17Zm4.71,27a6.52,6.52,0,0,0,6.41-6.67,6.37,6.37,0,0,0-6.41-6.5H696v13.17Z"/>
      <path class="cls-1" d="M752,554.18h44.47v14.54H766.53v12.83H793v14.54H766.53v12.83h29.93v14.54H752Z"/>
      <path class="cls-1" d="M854.61,623.46,841.1,599.08H834v24.38H819.46V554.18h26.26a21.91,21.91,0,0,1,22.41,22.41c0,9.15-4.79,16.59-12.15,20.18l15.48,26.69ZM834,584.54h11.72c4.79,0,7.87-3.08,7.87-7.95s-3.08-7.87-7.87-7.87H834Z"/>
      <path class="cls-1" d="M888.23,588.82a35.59,35.59,0,0,1,61.58-24.21L939.46,575A20.47,20.47,0,0,0,924,568a20.78,20.78,0,1,0-.09,41.56,20.46,20.46,0,0,0,11.63-3.51v-10H922.18V581.55h27.11v32.84c-7.35,6.33-15.82,9.92-25.23,9.92A35.53,35.53,0,0,1,888.23,588.82Z"/>
    </g>
  </g>
</svg>
