<svg id="Layer_1" data-name="Layer 1" xmlns="http://www.w3.org/2000/svg" viewBox="0 0 1200 1200">
  <defs>
    <style>
      .cls-1 {
        fill: #990037;
      }
    </style>
  </defs>
  <title>Westberg_SVG</title>
  <g>
    <path class="cls-1" d="M623.27,540.67a2.94,2.94,0,0,1-.44-.58l-17.23-30Z"/>
    <path class="cls-1" d="M575.31,481.85l41.94,72.64a2.72,2.72,0,0,1,0,2.69l-26.73,46.57a2.69,2.69,0,0,1-4.67,0l-68.4-119.21a2.7,2.7,0,0,1,2.34-4H573A2.7,2.7,0,0,1,575.31,481.85Z"/>
    <path class="cls-1" d="M623.27,540.67a2.94,2.94,0,0,1-.44-.58l-17.23-30Z"/>
    <path class="cls-1" d="M611.61,418.19a2.7,2.7,0,0,0-2.33-1.35H556.77a2.7,2.7,0,0,0-2.34,4L659.21,603.75a2.69,2.69,0,0,0,4.67,0l26.58-46.31a2.69,2.69,0,0,0,0-2.69Zm11.22,121.9-17.23-30,17.67,30.61A2.94,2.94,0,0,1,622.83,540.09Z"/>
    <path class="cls-1" d="M623.27,540.67a2.94,2.94,0,0,1-.44-.58l-17.23-30Z"/>
    <path class="cls-1" d="M695.9,420.88l-.58,1L664,476.53a2.69,2.69,0,0,1-4.67,0l-32.13-55.65a2.7,2.7,0,0,1,2.33-4.05h64.07A2.69,2.69,0,0,1,695.9,420.88Z"/>
    <path class="cls-1" d="M623.27,540.67a2.94,2.94,0,0,1-.44-.58l-17.23-30Z"/>
    <path class="cls-1" d="M732.28,484.54l-31.74,55.32a2.69,2.69,0,0,1-4.67,0L664,484.63a2.7,2.7,0,0,1,2.33-4.05L730,480.5A2.69,2.69,0,0,1,732.28,484.54Z"/>
  </g>
  <g>
    <path class="cls-1" d="M396.86,723.55l-12.4-27.88L372,723.55l-32.59-71h16.08l16.93,40.2,5.22-12.32-12.49-27.88H379.5l5,11.72,4.88-11.72h14.37l-12.49,27.88,5.22,12.32,16.93-40.2h16.08Z"/>
    <path class="cls-1" d="M448.52,652.56H493V667.1H463.06v12.83h26.51v14.54H463.06V707.3H493v14.54H448.52Z"/>
    <path class="cls-1" d="M512,704.9l13.43-6.07c.59,5.73,4.53,9.41,9.66,9.41,4.7,0,7.95-3.08,7.95-7.61,0-11.29-27.19-7.87-27.19-29.77,0-11.2,8.21-19.15,19.67-19.15,9.06,0,16.59,5.21,19.41,13.25l-12.66,5.65a6.9,6.9,0,0,0-6.5-5.05c-3.33,0-5.47,2.05-5.47,5,0,9.67,27.28,7.27,27.28,30.28,0,12.74-9.32,21.89-22.15,21.89C524.12,722.69,514.37,715.42,512,704.9Z"/>
    <path class="cls-1" d="M589.89,667.1H573V652.56h48.32V667.1H604.43v54.74H589.89Z"/>
    <path class="cls-1" d="M642,652.56h24.2a21,21,0,0,1,21,21,17.34,17.34,0,0,1-3.67,11,19.61,19.61,0,0,1,8.38,16.33,21,21,0,0,1-21,21H642Zm24.2,27.71a6.37,6.37,0,0,0,6.41-6.5,6.51,6.51,0,0,0-6.41-6.67h-9.67v13.17Zm4.7,27a6.53,6.53,0,0,0,6.42-6.67,6.38,6.38,0,0,0-6.42-6.5H656.51V707.3Z"/>
    <path class="cls-1" d="M712.53,652.56H757V667.1H727.07v12.83h26.51v14.54H727.07V707.3H757v14.54H712.53Z"/>
    <path class="cls-1" d="M815.16,721.84l-13.51-24.38h-7.1v24.38H780V652.56h26.26A21.9,21.9,0,0,1,828.67,675c0,9.15-4.79,16.59-12.14,20.18L832,721.84Zm-20.61-38.92h11.72c4.78,0,7.86-3.08,7.86-7.95s-3.08-7.87-7.86-7.87H794.55Z"/>
    <path class="cls-1" d="M848.77,687.2A35.58,35.58,0,0,1,910.35,663L900,673.34a20.47,20.47,0,0,0-15.48-6.92,20.78,20.78,0,1,0-.08,41.56,20.47,20.47,0,0,0,11.63-3.5v-10H882.73V679.93h27.11v32.84c-7.36,6.33-15.83,9.92-25.23,9.92A35.54,35.54,0,0,1,848.77,687.2Z"/>
  </g>
</svg>
