<svg id="Layer_1" data-name="Layer 1" xmlns="http://www.w3.org/2000/svg" viewBox="0 0 1200 1200">
  <defs>
    <style>
      .cls-1 {
        fill: #990037;
      }

      .cls-2 {
        fill: #fff;
      }
    </style>
  </defs>
  <title>Westberg_SVG</title>
  <rect class="cls-1" y="-0.8" width="1200" height="1200"/>
  <g>
    <path class="cls-2" d="M598.4,540.67a2.94,2.94,0,0,1-.44-.58l-17.23-30Z"/>
    <path class="cls-2" d="M550.44,481.85l41.94,72.64a2.69,2.69,0,0,1,0,2.69l-26.72,46.57a2.69,2.69,0,0,1-4.67,0l-68.4-119.21a2.7,2.7,0,0,1,2.34-4h53.18A2.7,2.7,0,0,1,550.44,481.85Z"/>
    <path class="cls-2" d="M598.4,540.67a2.94,2.94,0,0,1-.44-.58l-17.23-30Z"/>
    <path class="cls-2" d="M586.74,418.19a2.7,2.7,0,0,0-2.33-1.35H531.9a2.7,2.7,0,0,0-2.34,4L634.34,603.75a2.69,2.69,0,0,0,4.67,0l26.58-46.31a2.72,2.72,0,0,0,0-2.69ZM598,540.09l-17.23-30,17.67,30.61A2.94,2.94,0,0,1,598,540.09Z"/>
    <path class="cls-2" d="M598.4,540.67a2.94,2.94,0,0,1-.44-.58l-17.23-30Z"/>
    <path class="cls-2" d="M671,420.88l-.59,1L639.1,476.53a2.69,2.69,0,0,1-4.67,0L602.3,420.89a2.7,2.7,0,0,1,2.33-4.05H668.7A2.69,2.69,0,0,1,671,420.88Z"/>
    <path class="cls-2" d="M598.4,540.67a2.94,2.94,0,0,1-.44-.58l-17.23-30Z"/>
    <path class="cls-2" d="M707.41,484.54l-31.74,55.32a2.69,2.69,0,0,1-4.67,0l-31.9-55.24a2.7,2.7,0,0,1,2.33-4.05l63.64-.08A2.7,2.7,0,0,1,707.41,484.54Z"/>
  </g>
  <g>
    <path class="cls-2" d="M372,723.55l-12.4-27.88-12.48,27.88-32.59-71H330.6l16.93,40.2,5.22-12.32-12.49-27.88h14.37l5,11.72,4.88-11.72h14.36l-12.48,27.88,5.22,12.32,16.93-40.2h16.08Z"/>
    <path class="cls-2" d="M423.65,652.56h44.47V667.1H438.19v12.83H464.7v14.54H438.19V707.3h29.93v14.54H423.65Z"/>
    <path class="cls-2" d="M487.11,704.9l13.42-6.07c.6,5.73,4.54,9.41,9.67,9.41,4.7,0,7.95-3.08,7.95-7.61,0-11.29-27.19-7.87-27.19-29.77,0-11.2,8.21-19.15,19.67-19.15,9.06,0,16.59,5.21,19.41,13.25l-12.66,5.65a6.9,6.9,0,0,0-6.5-5.05c-3.33,0-5.47,2.05-5.47,5,0,9.67,27.28,7.27,27.28,30.28,0,12.74-9.32,21.89-22.15,21.89C499.25,722.69,489.5,715.42,487.11,704.9Z"/>
    <path class="cls-2" d="M565,667.1H548.09V652.56h48.32V667.1H579.56v54.74H565Z"/>
    <path class="cls-2" d="M617.1,652.56h24.21a21,21,0,0,1,21,21,17.35,17.35,0,0,1-3.68,11A19.59,19.59,0,0,1,667,700.88a21,21,0,0,1-21,21H617.1Zm24.21,27.71a6.37,6.37,0,0,0,6.41-6.5,6.51,6.51,0,0,0-6.41-6.67h-9.67v13.17Zm4.7,27a6.53,6.53,0,0,0,6.42-6.67,6.38,6.38,0,0,0-6.42-6.5H631.64V707.3Z"/>
    <path class="cls-2" d="M687.66,652.56h44.47V667.1H702.2v12.83h26.51v14.54H702.2V707.3h29.93v14.54H687.66Z"/>
    <path class="cls-2" d="M790.29,721.84l-13.51-24.38h-7.1v24.38H755.14V652.56h26.25A21.9,21.9,0,0,1,803.8,675c0,9.15-4.79,16.59-12.14,20.18l15.48,26.69Zm-20.61-38.92h11.71c4.79,0,7.87-3.08,7.87-7.95s-3.08-7.87-7.87-7.87H769.68Z"/>
    <path class="cls-2" d="M823.9,687.2A35.58,35.58,0,0,1,885.48,663l-10.35,10.34a20.47,20.47,0,0,0-15.48-6.92,20.78,20.78,0,1,0-.08,41.56,20.47,20.47,0,0,0,11.63-3.5v-10H857.85V679.93H885v32.84c-7.36,6.33-15.83,9.92-25.23,9.92A35.54,35.54,0,0,1,823.9,687.2Z"/>
  </g>
</svg>
