<svg id="Layer_1" data-name="Layer 1" xmlns="http://www.w3.org/2000/svg" viewBox="0 0 1200 1200">
  <defs>
    <style>
      .cls-1 {
        fill: #990037;
      }

      .cls-2 {
        fill: #fff;
      }
    </style>
  </defs>
  <title>Westberg_SVG</title>
  <rect class="cls-1" y="-0.8" width="1200" height="1200"/>
  <g>
    <g>
      <path class="cls-2" d="M323.64,602.73a1.57,1.57,0,0,1-.24-.32l-9.31-16.23Z"/>
      <path class="cls-2" d="M297.71,570.92l22.67,39.28a1.45,1.45,0,0,1,0,1.45l-14.45,25.18a1.46,1.46,0,0,1-2.53,0l-37-64.45a1.46,1.46,0,0,1,1.27-2.18h28.75A1.45,1.45,0,0,1,297.71,570.92Z"/>
      <path class="cls-2" d="M323.64,602.73a1.57,1.57,0,0,1-.24-.32l-9.31-16.23Z"/>
      <path class="cls-2" d="M317.34,536.51a1.46,1.46,0,0,0-1.27-.73H287.68a1.45,1.45,0,0,0-1.26,2.18l56.65,98.87a1.46,1.46,0,0,0,2.53,0l14.36-25a1.45,1.45,0,0,0,0-1.45Zm6.06,65.9-9.31-16.23,9.55,16.55A1.57,1.57,0,0,1,323.4,602.41Z"/>
      <path class="cls-2" d="M323.64,602.73a1.57,1.57,0,0,1-.24-.32l-9.31-16.23Z"/>
      <path class="cls-2" d="M362.91,538l-.32.56-16.95,29.53a1.45,1.45,0,0,1-2.52,0L325.75,538a1.45,1.45,0,0,1,1.26-2.18h34.63A1.46,1.46,0,0,1,362.91,538Z"/>
      <path class="cls-2" d="M323.64,602.73a1.57,1.57,0,0,1-.24-.32l-9.31-16.23Z"/>
      <path class="cls-2" d="M382.58,572.38l-17.17,29.91a1.45,1.45,0,0,1-2.52,0l-17.24-29.86a1.45,1.45,0,0,1,1.26-2.19l34.4,0A1.46,1.46,0,0,1,382.58,572.38Z"/>
    </g>
    <g>
      <path class="cls-2" d="M463.94,625.17l-12.4-27.88-12.49,27.88-32.58-71h16.07l16.94,40.2,5.22-12.32-12.49-27.88h14.37l5,11.72,4.87-11.72h14.37l-12.49,27.88,5.22,12.32,16.94-40.2h16.07Z"/>
      <path class="cls-2" d="M515.59,554.18h44.48v14.54H530.13v12.83h26.52v14.54H530.13v12.83h29.94v14.54H515.59Z"/>
      <path class="cls-2" d="M579.05,606.52l13.43-6.07c.6,5.73,4.53,9.41,9.67,9.41,4.7,0,8-3.08,8-7.61,0-11.29-27.2-7.87-27.2-29.77,0-11.2,8.21-19.15,19.67-19.15,9.07,0,16.59,5.21,19.42,13.25l-12.66,5.65c-1-3-3.42-5.05-6.5-5.05-3.34,0-5.47,2.05-5.47,5,0,9.66,27.28,7.27,27.28,30.28,0,12.74-9.32,21.89-22.15,21.89C591.2,624.31,581.45,617,579.05,606.52Z"/>
      <path class="cls-2" d="M657,568.72H640V554.18h48.32v14.54H671.51v54.74H657Z"/>
      <path class="cls-2" d="M709.05,554.18h24.2a21,21,0,0,1,21,21,17.35,17.35,0,0,1-3.68,11,19.59,19.59,0,0,1,8.38,16.33,21,21,0,0,1-20.95,21H709.05Zm24.2,27.71a6.37,6.37,0,0,0,6.42-6.5,6.52,6.52,0,0,0-6.42-6.67h-9.66v13.17Zm4.71,27a6.52,6.52,0,0,0,6.41-6.67,6.37,6.37,0,0,0-6.41-6.5H723.59v13.17Z"/>
      <path class="cls-2" d="M779.61,554.18h44.47v14.54H794.15v12.83h26.51v14.54H794.15v12.83h29.93v14.54H779.61Z"/>
      <path class="cls-2" d="M882.24,623.46l-13.52-24.38h-7.1v24.38H847.08V554.18h26.26a21.91,21.91,0,0,1,22.41,22.41c0,9.15-4.79,16.59-12.15,20.18l15.48,26.69Zm-20.62-38.92h11.72c4.79,0,7.87-3.08,7.87-7.95s-3.08-7.87-7.87-7.87H861.62Z"/>
      <path class="cls-2" d="M915.85,588.82a35.59,35.59,0,0,1,61.58-24.21L967.08,575A20.47,20.47,0,0,0,951.6,568a20.78,20.78,0,1,0-.09,41.56,20.46,20.46,0,0,0,11.63-3.51v-10H949.8V581.55h27.11v32.84c-7.35,6.33-15.82,9.92-25.23,9.92A35.53,35.53,0,0,1,915.85,588.82Z"/>
    </g>
  </g>
</svg>
